<svg>
	<defs>
		<svg id="home2" width="16" height="16" viewBox="0 0 16 16" fill="none" xmlns="http://www.w3.org/2000/svg">
			<path
				d="M3.5 2C2.6775 2 2 2.6775 2 3.5V4.5C2 5.3225 2.6775 6 3.5 6H6.16667C6.98917 6 7.66667 5.3225 7.66667 4.5V3.5C7.66667 2.6775 6.98917 2 6.16667 2H3.5ZM9.83333 2C9.01083 2 8.33333 2.6775 8.33333 3.5V7.83333C8.33333 8.65583 9.01083 9.33333 9.83333 9.33333H12.5C13.3225 9.33333 14 8.65583 14 7.83333V3.5C14 2.6775 13.3225 2 12.5 2H9.83333ZM3.5 3H6.16667C6.44883 3 6.66667 3.21783 6.66667 3.5V4.5C6.66667 4.78217 6.44883 5 6.16667 5H3.5C3.21783 5 3 4.78217 3 4.5V3.5C3 3.21783 3.21783 3 3.5 3ZM9.83333 3H12.5C12.7822 3 13 3.21783 13 3.5V7.83333C13 8.1155 12.7822 8.33333 12.5 8.33333H9.83333C9.55117 8.33333 9.33333 8.1155 9.33333 7.83333V3.5C9.33333 3.21783 9.55117 3 9.83333 3ZM3.5 6.66667C2.6775 6.66667 2 7.34417 2 8.16667V12.5C2 13.3225 2.6775 14 3.5 14H6.16667C6.98917 14 7.66667 13.3225 7.66667 12.5V8.16667C7.66667 7.34417 6.98917 6.66667 6.16667 6.66667H3.5ZM3.5 7.66667H6.16667C6.44883 7.66667 6.66667 7.8845 6.66667 8.16667V12.5C6.66667 12.7822 6.44883 13 6.16667 13H3.5C3.21783 13 3 12.7822 3 12.5V8.16667C3 7.8845 3.21783 7.66667 3.5 7.66667ZM9.83333 10C9.01083 10 8.33333 10.6775 8.33333 11.5V12.5C8.33333 13.3225 9.01083 14 9.83333 14H12.5C13.3225 14 14 13.3225 14 12.5V11.5C14 10.6775 13.3225 10 12.5 10H9.83333ZM9.83333 11H12.5C12.7822 11 13 11.2178 13 11.5V12.5C13 12.7822 12.7822 13 12.5 13H9.83333C9.55117 13 9.33333 12.7822 9.33333 12.5V11.5C9.33333 11.2178 9.55117 11 9.83333 11Z"
				fill="black"
			/>
		</svg>
		<svg id="home" width="20" height="22" viewBox="0 0 20 22" fill="none" xmlns="http://www.w3.org/2000/svg">
			<path d="M1 8L10 1L19 8V19C19 19.5304 18.7893 20.0391 18.4142 20.4142C18.0391 20.7893 17.5304 21 17 21H3C2.46957 21 1.96086 20.7893 1.58579 20.4142C1.21071 20.0391 1 19.5304 1 19V8Z" stroke="#07172F" stroke-width="1.5" stroke-linecap="round" stroke-linejoin="round"/>
			<path d="M7 21V11H13V21" stroke="#07172F" stroke-width="1.5" stroke-linecap="round" stroke-linejoin="round"/>
		</svg>
		<svg id="down_arrow" width="24" height="24" viewBox="0 0 24 24" fill="none" xmlns="http://www.w3.org/2000/svg">
			<path d="M6 9L12 15L18 9" stroke="#07172F" stroke-width="2" stroke-linecap="round" stroke-linejoin="round"/>
		</svg>

		<svg id="up_arrow" width="24" height="24" viewBox="0 0 24 24" fill="none" xmlns="http://www.w3.org/2000/svg">
			<path d="M13.5 11.25L9 6.75L4.5 11.25" stroke="#07172F" stroke-width="2" stroke-linecap="round" stroke-linejoin="round"/>
		</svg>

		<svg id="mark" width="22" height="22" viewBox="0 0 22 22" fill="none" xmlns="http://www.w3.org/2000/svg">
			<ellipse cx="11" cy="11" rx="10" ry="10" stroke="#fff" fill="white" stroke-width="2" stroke-linecap="round" stroke-linejoin="round"/>
			<path d="M15.0256 8.66669L9.99877 13.3334L7.71387 11.2121" stroke="blue" stroke-width="2" stroke-linecap="round" stroke-linejoin="round"/>
		</svg>

		<svg id="blue_arrow_down" width="16" height="10" viewBox="0 0 16 10" fill="none" xmlns="http://www.w3.org/2000/svg">
		<path d="M2 2L8 8L14 2" stroke="#2E71FF" stroke-width="2.5" stroke-linecap="round" stroke-linejoin="round"/>
		</svg>

		<svg id="nft" width="36" height="40" viewBox="0 0 36 40" fill="none" xmlns="http://www.w3.org/2000/svg">
			<mask id="mask0_1_1517" style="mask-type:alpha" maskUnits="userSpaceOnUse" x="0" y="1" width="36" height="38">
			<path d="M14.8713 1.91198C16.792 0.738237 19.208 0.738238 21.1287 1.91198L33.1287 9.24532C34.9122 10.3352 36 12.2748 36 14.365V25.635C36 27.7252 34.9122 29.6647 33.1287 30.7547L21.1287 38.088C19.208 39.2618 16.792 39.2618 14.8713 38.088L2.87129 30.7547C1.08776 29.6647 -9.43893e-06 27.7252 -9.43893e-06 25.635V14.365C-9.43893e-06 12.2748 1.08776 10.3352 2.87129 9.24532L14.8713 1.91198Z" fill="#C4C4C4"/>
			</mask>
			<g mask="url(#mask0_1_1517)">
			<path opacity="0.65" d="M14.8713 1.91198C16.792 0.738237 19.208 0.738238 21.1287 1.91198L33.1287 9.24532C34.9122 10.3352 36 12.2748 36 14.365V25.635C36 27.7252 34.9122 29.6647 33.1287 30.7547L21.1287 38.088C19.208 39.2618 16.792 39.2618 14.8713 38.088L2.87129 30.7547C1.08776 29.6647 -9.43893e-06 27.7252 -9.43893e-06 25.635V14.365C-9.43893e-06 12.2748 1.08776 10.3352 2.87129 9.24532L14.8713 1.91198Z" fill="#C4C4C4"/>
			<path d="M2.8713 30.7547L18 40L18 0L2.8713 9.24532C1.08777 10.3353 0 12.2748 0 14.365V25.635C0 27.7252 1.08777 29.6647 2.8713 30.7547Z" fill="#68FFC7"/>
			<path d="M33.1287 30.7547L18 40L18 0L33.1287 9.24532C34.9122 10.3353 36 12.2748 36 14.365V25.635C36 27.7252 34.9122 29.6647 33.1287 30.7547Z" fill="#1BDE96"/>
			<path opacity="0.65" d="M18 8L29 14.6V25.4L18 32L7 25.4V14.6L18 8Z" fill="#1BF3A4"/>
			</g>
			<path d="M14.568 17H12.9899V21.0332H12.9356L10.3609 17H9V24H10.5813V19.96H10.6228L13.2263 24H14.568V17Z" fill="#07172F"/>
			<path d="M15.7422 24H17.3235V21.187H19.9239V19.8096H17.3235V18.374H20.2082V17H15.7422V24Z" fill="#07172F"/>
			<path d="M20.9703 18.374H22.9573V24H24.5162V18.374H26.5V17H20.9703V18.374Z" fill="#07172F"/>
		</svg>

		<svg id="t-check" width="24" height="24" viewBox="0 0 24 24" fill="none" xmlns="http://www.w3.org/2000/svg">
			<path d="M16.0256 9.66669L10.9988 14.3334L8.71387 12.2121" stroke="#1BF3A4" stroke-width="2" stroke-linecap="round" stroke-linejoin="round"/>
			<ellipse cx="12" cy="12" rx="10" ry="10" stroke="#1BF3A4" stroke-width="2" stroke-linecap="round" stroke-linejoin="round"/>
		</svg>

		<svg id="id" width="26" height="24" viewBox="0 0 26 24" fill="none" xmlns="http://www.w3.org/2000/svg">
			<path d="M3.7791 3.91211L3.76338 3.9H4.05691H21.9431C23.6909 3.9 25.1 5.30888 25.1 7.05691V16.8842C25.1 18.632 23.6911 20.0411 21.9431 20.0411H4.05691C2.30907 20.0411 0.900002 18.6322 0.900002 16.8842L0.900177 7.03164C0.900177 5.40086 2.16253 4.05206 3.7791 3.91211ZM2.31258 16.8841C2.31258 17.8393 3.10149 18.6283 4.05673 18.6283H21.9429C22.8981 18.6283 23.6871 17.8394 23.6871 16.8841L23.6872 7.03155C23.6872 6.07635 22.8983 5.2874 21.9431 5.2874H4.05691C3.1017 5.2874 2.31276 6.07631 2.31276 7.03156L2.31258 16.8841Z" fill="#718CAF" stroke="#718CAF" stroke-width="0.2"/>
			<path d="M5.01791 7.56314H11.6368C12.0205 7.56314 12.3432 7.88581 12.3432 8.2695C12.3432 8.65318 12.0205 8.97585 11.6368 8.97585H5.04317C4.66075 8.97585 4.33896 8.65532 4.33683 8.27332C4.30925 7.8839 4.63723 7.56314 5.01782 7.56314H5.01791Z" fill="#718CAF" stroke="#718CAF" stroke-width="0.2"/>
			<path d="M5.01791 11.2515H11.6368C12.0205 11.2515 12.3432 11.5742 12.3432 11.9579C12.3432 12.3416 12.0205 12.6642 11.6368 12.6642H5.04317C4.65947 12.6642 4.33682 12.3416 4.33682 11.9579C4.33682 11.5798 4.62883 11.2515 5.01782 11.2515H5.01791Z" fill="#718CAF" stroke="#718CAF" stroke-width="0.2"/>
			<path d="M5.01791 14.9399H11.6368C12.0205 14.9399 12.3432 15.2626 12.3432 15.6463C12.3432 16.03 12.0205 16.3526 11.6368 16.3526H5.04317C4.65947 16.3526 4.33682 16.03 4.33682 15.6463C4.33682 15.2682 4.62883 14.9399 5.01782 14.9399H5.01791Z" fill="#718CAF" stroke="#718CAF" stroke-width="0.2"/>
			<path d="M16.1269 11.4075C15.7062 10.9467 15.4516 10.3502 15.4516 9.68411C15.4516 8.26478 16.608 7.10839 18.0273 7.10839C19.4466 7.10839 20.603 8.26478 20.603 9.68411C20.603 10.3466 20.3509 10.9647 19.9302 11.4091C21.0392 12.1282 21.7904 13.463 21.7904 14.964C21.7904 15.1808 21.7429 15.485 21.5407 15.7982C21.3384 16.1118 20.9861 16.4269 20.3897 16.6733L20.3886 16.6737C19.7432 16.932 18.8965 17.0851 18.0021 17.0851C17.0708 17.0851 16.1325 16.9259 15.4231 16.5858C14.7135 16.2456 14.2136 15.7128 14.2136 14.964H14.2136L14.2137 14.9607C14.2636 13.461 15.0165 12.1263 16.1269 11.4075ZM19.1904 9.6843C19.1904 9.03216 18.6794 8.52115 18.0273 8.52115C17.3752 8.52115 16.8642 9.03216 16.8642 9.6843C16.8642 10.3364 17.3752 10.8474 18.0273 10.8474C18.6781 10.8474 19.1904 10.3123 19.1904 9.6843ZM18.0273 15.6727C18.7754 15.6727 19.3757 15.5541 19.7854 15.3981C19.9908 15.32 20.1444 15.2339 20.2447 15.1517C20.3492 15.0661 20.3778 15.0001 20.3778 14.9642C20.3778 13.4655 19.2989 12.26 18.0273 12.26C16.7311 12.26 15.6768 13.4648 15.6768 14.9642C15.6768 15.0002 15.7054 15.0662 15.8099 15.1518C15.9102 15.234 16.0638 15.3201 16.2692 15.3982C16.6789 15.5542 17.2792 15.6727 18.0273 15.6727Z" fill="#718CAF" stroke="#718CAF" stroke-width="0.2"/>
		</svg>

		<svg id="phone" width="16" height="24" viewBox="0 0 16 24" fill="none" xmlns="http://www.w3.org/2000/svg">
			<rect x="-0.9" y="0.9" width="14.2" height="22.2" rx="3.1" transform="matrix(-1 0 0 1 14.2 0)" stroke="#2E71FF" stroke-opacity="0.99" stroke-width="1.8"/>
			<line y1="-0.9" x2="15" y2="-0.9" transform="matrix(-1 0 0 1 15 5.75999)" stroke="#2E71FF" stroke-opacity="0.99" stroke-width="1.8"/>
			<line y1="-0.9" x2="15" y2="-0.9" transform="matrix(-1 0 0 1 15 18.24)" stroke="#2E71FF" stroke-opacity="0.99" stroke-width="1.8"/>
			<circle r="1" transform="matrix(-1 0 0 1 8 20.2)" fill="#2E71FF" fill-opacity="0.99"/>
		</svg>

		<svg id="account_svg" width="24" height="24" viewBox="0 0 24 24" fill="none" xmlns="http://www.w3.org/2000/svg">
			<path d="M3 22H21" stroke="#718CAF" stroke-width="2" stroke-linecap="round" stroke-linejoin="round"/>
			<path d="M6 18V11" stroke="#718CAF" stroke-width="2" stroke-linecap="round" stroke-linejoin="round"/>
			<path d="M10 18V11" stroke="#718CAF" stroke-width="2" stroke-linecap="round" stroke-linejoin="round"/>
			<path d="M14 18V11" stroke="#718CAF" stroke-width="2" stroke-linecap="round" stroke-linejoin="round"/>
			<path d="M18 18V11" stroke="#718CAF" stroke-width="2" stroke-linecap="round" stroke-linejoin="round"/>
			<path d="M12 2L20 7H4L12 2Z" stroke="#718CAF" stroke-width="2" stroke-linecap="round" stroke-linejoin="round"/>
		</svg>
	</defs>
</svg>
